<mxfile host="app.diagrams.net" modified="2023-12-13T14:38:17.809Z" agent="Mozilla/5.0 (Macintosh; Intel Mac OS X 10_15_7) AppleWebKit/605.1.15 (KHTML, like Gecko) Version/16.3 Safari/605.1.15" version="22.1.8" etag="XHcUauiS1GJ7kwEmA0Zd" type="github">
  <diagram name="Page-1" id="IIt3IumOc44sxoA0X-Ky">
    <mxGraphModel>
      <root>
        <mxCell id="0" />
        <mxCell id="1" parent="0" />
      </root>
    </mxGraphModel>
  </diagram>
</mxfile>
